<?xml version="1.0" standalone="no"?>
<!DOCTYPE svg PUBLIC "-//W3C//DTD SVG 20010904//EN"
 "http://www.w3.org/TR/2001/REC-SVG-20010904/DTD/svg10.dtd">
<svg version="1.0" xmlns="http://www.w3.org/2000/svg"
 width="300.000000pt" height="300.000000pt" viewBox="0 0 300.000000 300.000000"
 preserveAspectRatio="xMidYMid meet">
<metadata>
Created by potrace 1.10, written by Peter Selinger 2001-2011
</metadata>
<g transform="translate(0.000000,300.000000) scale(0.100000,-0.100000)"
fill="#000000" stroke="none">
<path d="M994 2988 c-4 -7 -14 -23 -22 -35 -14 -22 -13 -23 14 -23 20 0 25 3
15 9 -10 7 -11 13 -1 31 12 23 7 40 -6 18z"/>
<path d="M2007 2977 c-23 -35 -21 -47 4 -47 17 0 19 3 10 13 -7 10 -7 17 0 24
6 6 9 17 7 23 -2 8 -11 2 -21 -13z"/>
<path d="M683 2952 c38 -39 46 -69 25 -90 -9 -9 -9 -12 -1 -12 14 0 18 7 27
43 5 23 1 33 -31 62 -51 47 -66 45 -20 -3z"/>
<path d="M1703 2955 c38 -36 47 -71 25 -93 -9 -9 -9 -12 -1 -12 14 0 18 7 27
43 5 23 1 33 -31 62 -21 19 -42 35 -48 35 -5 0 7 -16 28 -35z"/>
<path d="M2696 2978 c5 -7 21 -23 36 -36 30 -25 39 -76 16 -85 -10 -4 -10 -6
0 -6 16 -1 34 46 27 69 -3 10 -21 30 -40 44 -37 28 -51 33 -39 14z"/>
<path d="M180 2959 c-71 -20 -91 -83 -44 -138 14 -17 34 -31 45 -31 22 0 24
-12 8 -41 -8 -16 -7 -25 4 -37 8 -9 22 -35 31 -57 10 -22 31 -57 47 -78 25
-31 28 -41 19 -52 -15 -18 -12 -18 28 -4 36 13 33 31 -11 68 -33 28 -57 77
-57 116 0 38 27 31 49 -13 11 -21 27 -44 35 -51 9 -7 13 -17 10 -22 -8 -14 6
-50 17 -44 27 17 -16 120 -69 169 -18 15 -21 15 -48 -9 -16 -14 -33 -23 -39
-22 -18 6 -10 32 13 42 15 7 22 18 22 36 0 26 -2 27 -38 22 -34 -5 -41 -2 -57
23 -17 27 -25 78 -13 89 3 3 36 12 74 20 60 12 71 12 91 0 12 -8 31 -15 42
-15 23 0 36 -16 21 -25 -17 -10 -11 -25 10 -25 22 0 25 -12 10 -41 -9 -16 -7
-19 15 -19 27 0 31 -10 15 -40 -9 -16 -7 -19 17 -17 25 2 28 -1 25 -25 -4 -30
12 -38 22 -13 7 19 36 20 36 1 0 -7 7 -19 15 -26 12 -10 15 -9 15 5 0 13 6 16
26 11 16 -4 23 -3 20 3 -4 5 2 15 11 21 14 9 10 10 -22 5 -27 -4 -51 -1 -72
10 -31 16 -93 84 -93 102 0 15 -29 70 -43 80 -18 14 -91 33 -123 32 -16 0 -45
-5 -64 -10z"/>
<path d="M1200 2959 c-71 -20 -91 -83 -44 -138 14 -17 34 -31 45 -31 22 0 24
-12 8 -43 -12 -21 -11 -21 8 -4 11 9 25 17 31 17 7 0 12 13 12 29 0 29 -1 30
-36 24 -31 -5 -40 -2 -55 18 -10 13 -19 41 -19 61 l0 36 71 17 c64 14 74 14
95 0 13 -8 35 -15 49 -15 25 0 34 -14 15 -25 -17 -10 -11 -25 10 -25 22 0 25
-12 10 -41 -9 -16 -7 -19 15 -19 27 0 31 -10 15 -40 -10 -18 -8 -19 21 -13 32
6 32 6 26 -25 -7 -36 -2 -39 26 -14 13 11 21 13 24 6 2 -6 10 -20 18 -30 14
-18 14 -18 15 0 0 15 5 17 26 12 16 -4 23 -3 20 3 -4 5 2 15 11 21 14 9 10 10
-22 5 -70 -10 -131 36 -169 130 -22 52 -44 75 -72 75 -13 0 -26 5 -29 10 -8
12 -78 12 -125 -1z"/>
<path d="M2220 2959 c-43 -12 -70 -42 -70 -79 0 -38 45 -90 76 -90 24 0 24 0
8 -31 -15 -29 -14 -32 4 -53 11 -11 25 -38 32 -59 6 -21 26 -52 42 -69 26 -26
29 -34 19 -50 -10 -17 -9 -18 16 -12 16 4 31 9 35 11 12 7 -5 37 -35 62 -33
28 -57 77 -57 116 0 40 24 29 60 -27 34 -53 36 -58 38 -91 3 -30 22 -8 22 24
0 31 -40 98 -78 132 -19 18 -21 17 -46 -8 -16 -16 -33 -24 -42 -21 -21 8 -13
29 14 41 15 6 22 19 22 37 0 25 -2 26 -35 21 -44 -7 -74 24 -75 79 0 39 -3 37
126 63 11 3 29 -2 40 -10 10 -8 31 -15 47 -15 30 0 32 -3 17 -31 -9 -16 -7
-19 10 -19 22 0 25 -12 10 -41 -9 -16 -7 -19 15 -19 27 0 31 -10 15 -40 -10
-18 -8 -19 21 -13 31 6 32 5 27 -25 -5 -37 -2 -39 25 -14 13 11 21 13 24 6 2
-6 10 -20 18 -30 14 -18 14 -18 15 0 0 14 5 17 25 12 18 -5 25 -2 25 8 0 8 6
17 13 20 6 3 -4 3 -23 0 -44 -6 -101 17 -129 52 -11 14 -32 50 -46 79 -27 58
-33 64 -85 82 -41 15 -90 15 -140 2z"/>
<path d="M930 2922 c0 -6 11 -14 25 -18 13 -3 27 -15 31 -26 8 -26 15 -18 7
10 -3 12 -13 22 -22 22 -9 0 -22 5 -29 12 -9 9 -12 9 -12 0z"/>
<path d="M1950 2922 c0 -6 11 -14 25 -18 13 -3 27 -15 31 -26 8 -26 15 -18 7
10 -3 12 -13 22 -22 22 -9 0 -22 5 -29 12 -9 9 -12 9 -12 0z"/>
<path d="M859 2913 c-28 -4 -49 -37 -49 -77 0 -18 7 -25 27 -29 24 -4 26 -4
10 8 -18 13 -22 42 -9 61 12 19 45 19 80 1 28 -15 32 -16 32 -2 0 8 -9 15 -20
15 -11 0 -23 7 -26 15 -4 8 -9 14 -13 14 -3 -1 -18 -4 -32 -6z"/>
<path d="M1879 2913 c-16 -2 -31 -14 -38 -29 -16 -35 -14 -74 3 -74 8 0 23 -2
33 -5 11 -3 9 -1 -4 6 -23 12 -28 33 -17 63 8 21 62 21 92 0 20 -14 22 -14 22
0 0 9 -9 16 -20 16 -11 0 -23 7 -26 15 -4 8 -9 14 -13 14 -3 -1 -18 -4 -32 -6z"/>
<path d="M2898 2913 c-19 -3 -30 -13 -37 -35 -15 -42 -14 -68 3 -68 8 0 23 -2
33 -5 11 -3 9 -1 -4 6 -25 13 -29 30 -13 60 12 21 50 25 68 7 7 -7 12 -8 12
-4 0 5 7 3 15 -4 12 -10 15 -10 15 4 0 9 -8 16 -20 16 -11 0 -23 7 -26 15 -4
8 -9 14 -13 14 -3 -1 -18 -4 -33 -6z"/>
<path d="M758 2865 c-22 -29 -23 -55 -3 -55 8 0 15 -4 15 -10 0 -14 -33 -13
-48 2 -8 8 -12 8 -12 1 0 -16 25 -23 94 -28 44 -3 50 -2 21 3 -40 7 -40 7 -43
56 -1 28 -3 51 -5 52 -1 1 -10 -8 -19 -21z"/>
<path d="M1777 2861 c-21 -36 -22 -51 -2 -51 21 0 19 -20 -2 -21 -35 -2 31
-17 72 -17 l40 1 -40 6 c-40 6 -40 6 -42 55 -1 27 -4 50 -6 52 -1 2 -11 -10
-20 -25z"/>
<path d="M2797 2861 c-21 -36 -22 -51 -2 -51 8 0 15 -4 15 -10 0 -18 -33 -11
-59 12 l-26 22 25 -27 c21 -22 36 -28 90 -31 43 -3 51 -2 25 2 -40 7 -40 7
-41 55 -1 26 -3 50 -6 52 -2 2 -12 -9 -21 -24z"/>
<path d="M524 2849 c-10 -17 13 -36 27 -22 12 12 4 33 -11 33 -5 0 -12 -5 -16
-11z"/>
<path d="M1544 2849 c-10 -17 13 -36 27 -22 12 12 4 33 -11 33 -5 0 -12 -5
-16 -11z"/>
<path d="M2564 2849 c-10 -17 13 -36 27 -22 12 12 4 33 -11 33 -5 0 -12 -5
-16 -11z"/>
<path d="M2024 2789 c-10 -17 13 -36 27 -22 12 12 4 33 -11 33 -5 0 -12 -5
-16 -11z"/>
<path d="M1264 2735 c-16 -14 -35 -23 -43 -20 -12 5 -12 2 1 -12 8 -10 21 -35
28 -56 7 -21 26 -54 42 -73 25 -28 28 -37 18 -49 -15 -18 -12 -18 28 -4 36 13
33 31 -11 68 -47 40 -78 141 -43 141 14 0 81 -99 78 -114 -5 -16 9 -46 19 -41
27 17 -11 113 -64 163 l-24 22 -29 -25z"/>
<path d="M2660 2718 c0 -66 -49 -115 -153 -153 -45 -17 -47 -19 -31 -36 23
-26 12 -44 -41 -68 -45 -20 -105 -20 -105 0 0 5 -6 9 -12 9 -7 -1 -2 -10 11
-20 30 -26 75 -24 126 3 29 16 41 30 45 51 4 24 13 32 48 44 24 8 61 31 83 52
36 34 39 41 39 93 0 32 -2 57 -5 57 -3 0 -5 -15 -5 -32z"/>
<path d="M622 2717 c-4 -66 -52 -112 -155 -151 -46 -17 -47 -19 -31 -37 23
-26 12 -44 -41 -68 -45 -20 -105 -20 -105 0 0 5 -6 9 -12 9 -7 -1 -2 -10 11
-20 30 -26 66 -25 121 3 34 16 46 29 48 49 2 19 12 30 35 39 56 22 114 67 126
97 7 16 11 47 8 68 -2 28 -4 31 -5 11z"/>
<path d="M1640 2713 c0 -61 -52 -111 -153 -148 -45 -17 -47 -19 -31 -36 23
-26 12 -44 -41 -68 -45 -20 -105 -20 -105 0 0 5 -8 9 -17 9 -13 0 -9 -6 12
-20 39 -26 71 -25 125 3 35 17 46 29 50 51 4 24 13 32 48 44 24 8 61 31 83 52
36 34 39 41 39 88 0 29 -2 52 -5 52 -3 0 -5 -12 -5 -27z"/>
<path d="M937 2697 c-40 -24 -77 -71 -77 -98 0 -9 9 -24 20 -34 18 -17 21 -17
60 4 72 38 116 104 90 136 -18 21 -49 18 -93 -8z m83 -7 c0 -30 -119 -124
-136 -107 -11 11 45 76 84 97 42 22 52 24 52 10z"/>
<path d="M1975 2708 c-63 -34 -103 -95 -85 -129 21 -38 98 -10 152 55 46 55
-4 109 -67 74z m65 -16 c0 -27 -97 -112 -127 -112 -26 0 16 60 65 91 47 30 62
35 62 21z"/>
<path d="M2956 2679 c-39 -31 -59 -74 -46 -99 18 -33 90 -24 90 11 0 23 -8 23
-34 4 -49 -37 -49 5 -1 51 52 49 45 75 -9 33z"/>
<path d="M525 2649 c-43 -17 -92 -55 -82 -65 5 -5 125 55 132 66 12 19 2 19
-50 -1z"/>
<path d="M2565 2649 c-43 -17 -92 -55 -82 -65 5 -5 125 55 132 66 12 19 2 19
-50 -1z"/>
<path d="M1555 2650 c-3 -5 -14 -10 -24 -10 -22 0 -73 -38 -66 -49 5 -9 120
43 130 59 3 5 -3 10 -14 10 -11 0 -23 -4 -26 -10z"/>
<path d="M2564 2479 c-10 -17 13 -36 27 -22 12 12 4 33 -11 33 -5 0 -12 -5
-16 -11z"/>
<path d="M0 2462 c0 -14 7 -17 38 -14 21 2 53 -1 72 -6 l35 -9 -30 -8 c-85
-20 -130 -45 -107 -58 11 -7 112 29 129 46 34 34 -12 67 -93 67 -35 0 -44 -3
-44 -18z"/>
<path d="M922 2463 c-33 -11 -50 -13 -67 -5 -34 16 -38 3 -6 -24 26 -21 30
-22 67 -10 53 18 194 29 224 18 l25 -10 -30 -7 c-16 -4 -61 -18 -99 -32 -38
-13 -75 -22 -82 -19 -24 9 -7 -25 27 -54 43 -37 53 -38 34 -1 l-15 29 65 22
c106 35 134 76 70 100 -39 15 -164 11 -213 -7z"/>
<path d="M1945 2463 c-30 -11 -49 -12 -72 -5 -40 12 -41 4 -3 -25 26 -21 31
-22 66 -9 53 18 194 29 224 18 l25 -10 -30 -7 c-16 -3 -39 -10 -50 -15 -48
-20 -125 -41 -134 -36 -25 16 -1 -24 34 -57 49 -45 30 -48 -43 -6 l-55 31 -21
-25 c-13 -15 -61 -38 -126 -62 -58 -21 -127 -48 -155 -61 -43 -21 -51 -22 -64
-10 -12 13 -9 17 28 32 45 18 60 48 42 82 -11 20 -118 52 -175 52 -39 0 -31
18 13 31 49 14 159 7 276 -19 l90 -21 23 21 c27 26 27 31 5 66 l-18 26 -5 -34
c-6 -45 -24 -48 -137 -19 -146 36 -267 25 -287 -28 -11 -27 21 -49 98 -67 89
-21 101 -37 56 -79 -25 -23 -28 -32 -20 -48 14 -25 22 -25 137 15 155 54 196
70 223 89 24 15 29 15 77 0 64 -20 87 -14 72 21 -18 38 -5 54 55 71 96 28 124
71 61 95 -38 14 -163 10 -210 -7z"/>
<path d="M2861 2462 c0 -4 13 -17 28 -29 25 -20 32 -21 66 -11 33 11 55 32 43
43 -2 3 -21 0 -42 -6 -26 -7 -47 -7 -67 0 -16 5 -29 7 -28 3z"/>
<path d="M798 2418 l-3 -33 -55 3 c-30 2 -80 10 -110 19 -30 9 -85 16 -121 16
-151 0 -189 -86 -50 -113 65 -13 101 -29 101 -44 0 -7 -14 -24 -31 -38 -25
-23 -28 -30 -19 -48 6 -11 16 -20 23 -20 36 0 289 93 327 120 28 20 32 20 75
5 82 -27 89 -16 15 22 -72 37 -79 37 -92 0 -2 -4 -55 -27 -119 -51 -64 -24
-136 -54 -160 -65 -38 -19 -45 -20 -58 -6 -14 13 -11 17 27 31 43 17 58 40 47
72 -8 26 -45 41 -132 55 -40 6 -73 15 -73 18 0 14 65 29 126 29 34 0 89 -7
121 -15 129 -33 149 -34 178 -10 27 21 27 22 11 53 -9 18 -18 32 -21 32 -2 0
-5 -15 -7 -32z"/>
<path d="M2840 2422 c0 -21 -6 -35 -16 -39 -9 -3 -64 5 -123 18 -160 36 -265
26 -285 -28 -9 -22 20 -51 58 -58 126 -24 146 -42 96 -88 -25 -23 -28 -32 -20
-48 14 -25 22 -25 137 15 158 55 196 70 226 90 22 15 32 17 52 8 39 -18 38 4
-1 29 l-36 22 -21 -25 c-14 -16 -60 -39 -127 -63 -58 -21 -127 -49 -155 -62
-43 -20 -51 -21 -64 -9 -12 13 -9 17 28 32 45 18 60 48 42 82 -11 21 -118 52
-178 52 -26 0 -26 1 -10 18 26 25 174 23 297 -5 l95 -22 23 21 c27 26 27 36 2
68 l-20 25 0 -33z"/>
<path d="M2921 2386 c2 -2 21 -13 42 -25 37 -21 37 -21 37 -1 0 16 -5 19 -24
14 -13 -3 -27 -1 -30 5 -4 6 -12 11 -18 11 -6 0 -9 -2 -7 -4z"/>
<path d="M693 2280 c-62 -29 -86 -48 -38 -30 37 14 105 50 105 55 0 7 0 7 -67
-25z"/>
<path d="M1713 2280 c-62 -29 -86 -48 -38 -30 37 14 105 50 105 55 0 7 0 7
-67 -25z"/>
<path d="M2733 2280 c-62 -29 -86 -48 -38 -30 37 14 105 50 105 55 0 7 0 7
-67 -25z"/>
<path d="M223 2278 c-39 -44 -45 -64 -23 -90 18 -22 20 -22 46 -8 41 22 68 73
54 99 -14 28 -51 27 -77 -1z m60 -5 c-9 -26 -53 -83 -64 -83 -18 0 -8 30 22
65 33 38 52 46 42 18z"/>
<path d="M1231 2263 c-37 -44 -37 -44 -12 -74 19 -23 21 -23 47 -9 41 22 68
73 54 99 -17 33 -54 26 -89 -16z m79 19 c0 -15 -59 -92 -70 -92 -19 0 -10 30
21 65 30 34 49 44 49 27z"/>
<path d="M2255 2269 c-29 -35 -31 -75 -4 -92 38 -24 118 73 89 108 -20 25 -56
18 -85 -16z m75 13 c0 -15 -59 -92 -70 -92 -19 0 -10 30 21 65 30 34 49 44 49
27z"/>
<path d="M64 2259 c-10 -17 13 -36 27 -22 12 12 4 33 -11 33 -5 0 -12 -5 -16
-11z"/>
<path d="M1084 2259 c-10 -17 13 -36 27 -22 12 12 4 33 -11 33 -5 0 -12 -5
-16 -11z"/>
<path d="M2104 2259 c-10 -17 13 -36 27 -22 12 12 4 33 -11 33 -5 0 -12 -5
-16 -11z"/>
<path d="M852 2148 c-20 -20 -14 -45 19 -83 32 -36 56 -44 77 -23 20 20 13 54
-17 87 -30 32 -59 39 -79 19z m32 -14 c19 -7 61 -73 52 -81 -8 -9 -45 27 -62
59 -15 30 -15 31 10 22z"/>
<path d="M1872 2144 c-13 -23 -4 -54 26 -86 28 -30 51 -35 70 -16 21 21 13 58
-17 89 -33 32 -65 38 -79 13z m62 -38 c26 -35 33 -56 18 -56 -11 0 -47 39 -61
68 -19 36 12 28 43 -12z"/>
<path d="M2890 2141 c-13 -26 1 -63 36 -90 40 -31 68 -24 72 18 6 63 -81 121
-108 72z m64 -34 c26 -34 33 -57 18 -57 -11 0 -47 39 -61 68 -19 36 13 28 43
-11z"/>
<path d="M255 2123 c-22 -8 -51 -15 -64 -14 -19 1 -21 -2 -12 -13 15 -18 -5
-26 -65 -26 -49 0 -114 -23 -114 -40 0 -6 12 -3 26 7 18 11 45 17 82 16 45 -1
59 -6 76 -26 19 -23 31 -26 127 -31 115 -7 121 -5 134 46 12 46 36 60 94 52
28 -4 51 -10 51 -14 0 -27 -15 -40 -46 -40 -28 0 -38 -7 -64 -44 -19 -29 -26
-47 -19 -51 6 -4 13 -4 16 -1 3 3 15 1 27 -5 20 -10 20 -10 2 5 -30 24 -8 62
43 76 31 8 42 17 47 36 8 31 0 39 -47 52 -26 7 -47 6 -77 -5 -40 -13 -44 -13
-76 12 -38 29 -81 31 -141 8z m101 -22 c7 -1 26 -15 44 -31 39 -37 35 -65 -7
-53 -16 5 -67 7 -115 6 -77 -1 -88 1 -88 15 1 21 99 70 132 66 13 -1 28 -3 34
-3z"/>
<path d="M1275 2124 c-22 -9 -51 -15 -64 -15 -19 1 -21 -2 -12 -13 15 -18 -5
-26 -72 -26 -93 0 -150 -58 -113 -115 9 -14 21 -25 26 -25 6 0 1 9 -10 20 -26
26 -25 46 5 75 38 39 138 38 170 -1 18 -23 28 -25 127 -29 114 -5 121 -2 133
47 12 49 37 61 100 51 62 -11 62 -1 1 16 -31 8 -46 7 -71 -5 -30 -14 -35 -13
-80 11 -55 29 -83 31 -140 9z m106 -23 c16 -3 69 -61 69 -75 0 -14 -6 -16 -37
-9 -21 4 -75 7 -120 6 -76 -2 -83 -1 -83 16 0 13 10 22 30 26 17 4 30 10 30
15 0 18 62 30 111 21z"/>
<path d="M2291 2120 c-49 -23 -55 -24 -46 -10 3 6 -1 7 -10 4 -9 -4 -14 -13
-11 -20 6 -15 -9 -20 -93 -28 -63 -6 -98 -26 -107 -61 -6 -26 17 -75 37 -75 5
0 1 10 -11 22 -26 28 -25 44 5 73 37 38 137 38 170 0 18 -21 29 -24 130 -27
l109 -3 23 48 c13 26 30 50 39 54 8 3 37 1 65 -4 59 -12 52 4 -7 17 -29 7 -47
5 -72 -7 -32 -15 -35 -15 -64 7 -43 32 -102 36 -157 10z m110 -19 c16 -3 69
-61 69 -75 0 -14 -6 -16 -37 -9 -21 4 -75 7 -120 6 -76 -2 -83 -1 -83 16 0 13
10 22 30 26 17 4 30 10 30 15 0 18 62 30 111 21z"/>
<path d="M1604 2056 c-4 -10 -18 -16 -40 -16 -28 0 -38 -7 -64 -44 -19 -29
-26 -47 -19 -51 6 -4 13 -4 16 -1 3 3 15 1 27 -5 19 -9 19 -8 -1 7 l-23 16 21
29 c14 21 29 29 49 29 28 0 60 33 46 47 -3 3 -8 -2 -12 -11z"/>
<path d="M2624 2056 c-4 -10 -18 -16 -40 -16 -28 0 -38 -6 -59 -40 -14 -22
-25 -44 -25 -50 0 -20 15 -9 31 23 11 23 27 36 56 45 37 12 61 37 48 50 -2 3
-7 -3 -11 -12z"/>
<path d="M50 2007 c-26 -13 -34 -47 -12 -55 7 -2 10 2 6 11 -6 17 23 37 55 37
11 0 41 -14 66 -32 36 -25 45 -38 45 -61 0 -17 -8 -36 -17 -44 -16 -13 -16
-13 3 -4 24 11 37 57 24 82 -13 24 -82 68 -115 74 -17 3 -41 0 -55 -8z"/>
<path d="M1080 2013 c-23 -8 -39 -33 -33 -50 4 -11 8 -9 17 9 10 19 20 23 53
22 24 0 48 -7 58 -17 9 -10 25 -22 36 -27 21 -12 27 -74 9 -83 -6 -3 -5 -4 2
-3 16 3 29 55 18 76 -23 43 -122 88 -160 73z"/>
<path d="M2094 2011 c-24 -11 -35 -33 -25 -50 5 -8 12 -3 20 15 10 24 16 26
51 21 82 -11 140 -96 93 -134 -16 -13 -16 -13 3 -4 23 11 35 50 27 82 -3 10
-9 19 -13 19 -5 0 -21 11 -37 24 -33 28 -88 40 -119 27z"/>
<path d="M681 1965 c-24 -8 -48 -20 -52 -27 -26 -40 5 -111 58 -133 34 -14 35
-16 19 -33 -21 -24 -21 -39 0 -18 8 9 22 16 30 16 9 0 14 11 14 29 0 28 -2 29
-37 25 -32 -4 -41 -1 -56 21 -22 30 -26 84 -7 95 7 4 39 13 71 19 49 10 63 9
88 -4 17 -8 39 -15 51 -15 24 0 25 -8 3 -32 -15 -17 -15 -18 10 -18 27 0 38
-22 17 -35 -18 -11 -10 -25 15 -25 27 0 31 -10 15 -40 -10 -18 -8 -19 21 -13
31 6 31 6 24 -28 -7 -33 -7 -34 12 -16 27 24 38 22 53 -10 l12 -28 9 24 c7 19
12 22 21 13 14 -14 32 -16 23 -3 -3 6 3 15 12 21 14 8 11 9 -17 5 -73 -13
-138 39 -185 148 -17 40 -26 48 -67 62 -56 18 -98 18 -157 0z"/>
<path d="M1720 1970 c-61 -17 -69 -23 -75 -51 -9 -42 22 -100 60 -112 40 -13
39 -11 19 -44 -18 -28 -18 -28 2 -10 11 9 26 17 32 17 7 0 12 13 12 29 0 28
-2 29 -35 24 -44 -7 -74 24 -75 79 0 35 3 38 38 47 85 22 102 23 133 7 18 -9
40 -16 51 -16 19 0 24 -15 8 -25 -17 -10 -11 -25 10 -25 21 0 28 -24 10 -35
-18 -11 -10 -25 15 -25 27 0 31 -10 15 -40 -10 -18 -8 -19 21 -13 32 6 32 6
26 -25 -7 -32 6 -45 17 -17 9 24 32 18 46 -12 l12 -28 9 24 c7 19 12 22 21 13
16 -16 28 -15 28 2 0 8 6 17 13 20 6 3 -4 4 -24 1 -75 -11 -134 36 -179 142
-20 46 -26 53 -70 67 -51 17 -97 19 -140 6z"/>
<path d="M2718 1963 c-38 -13 -48 -21 -53 -44 -9 -42 22 -100 60 -112 40 -13
39 -11 19 -44 -18 -28 -18 -28 2 -10 11 9 27 17 36 17 10 0 13 8 10 29 -4 27
-7 29 -38 24 -43 -7 -73 25 -74 79 0 35 3 38 38 47 85 22 112 24 137 7 13 -9
33 -16 45 -16 21 0 27 -14 10 -25 -17 -10 -11 -25 10 -25 22 0 25 -12 10 -41
-9 -16 -7 -19 15 -19 27 0 31 -10 14 -42 -10 -18 -9 -20 6 -15 9 4 21 7 26 7
15 0 10 50 -6 56 -8 4 -15 10 -15 16 0 5 -9 29 -20 52 -17 38 -26 46 -69 60
-61 20 -102 20 -163 -1z"/>
<path d="M2614 1959 c-10 -17 13 -36 27 -22 12 12 4 33 -11 33 -5 0 -12 -5
-16 -11z"/>
<path d="M420 1929 c0 -5 7 -9 15 -9 8 0 23 -10 34 -21 20 -21 20 -21 14 -1
-5 21 -63 50 -63 31z"/>
<path d="M2460 1930 c0 -6 7 -10 15 -10 8 0 23 -10 35 -22 19 -20 28 -15 12 7
-11 16 -62 36 -62 25z"/>
<path d="M344 1923 c-24 -4 -44 -41 -44 -78 0 -19 5 -25 23 -25 19 1 20 2 5
10 -14 9 -15 16 -7 40 14 39 39 45 83 21 29 -17 36 -18 36 -6 0 8 -9 15 -20
15 -11 0 -23 7 -26 15 -6 15 -11 16 -50 8z"/>
<path d="M1364 1923 c-24 -4 -44 -41 -44 -78 0 -19 5 -25 22 -25 19 0 20 1 5
13 -14 10 -14 16 -3 42 13 30 49 44 61 24 4 -5 15 -9 25 -9 10 0 21 -6 23 -12
3 -8 6 -6 6 5 1 11 -6 17 -19 17 -11 0 -23 7 -26 15 -6 15 -11 16 -50 8z"/>
<path d="M2384 1923 c-23 -4 -44 -41 -44 -77 0 -19 6 -25 29 -28 17 -2 28 -1
25 4 -3 4 -12 8 -20 8 -21 0 -17 44 7 66 20 18 21 18 60 -3 30 -17 39 -18 39
-7 0 8 -9 14 -20 14 -11 0 -23 7 -26 15 -6 15 -11 16 -50 8z"/>
<path d="M248 1875 c-24 -32 -23 -55 2 -55 17 0 20 7 20 40 0 22 -1 40 -2 40
-2 0 -11 -11 -20 -25z"/>
<path d="M1268 1875 c-22 -29 -23 -55 -3 -55 21 0 19 -20 -2 -21 -30 -2 40
-17 77 -16 35 0 35 0 -5 6 -40 6 -40 6 -42 55 -1 27 -3 50 -5 51 -2 2 -11 -7
-20 -20z"/>
<path d="M2288 1875 c-22 -29 -23 -55 -3 -55 21 0 19 -20 -2 -21 -29 -2 39
-17 77 -17 19 0 26 2 15 5 -11 2 -31 6 -44 9 -17 4 -22 10 -18 24 3 10 2 32
-2 48 l-6 30 -17 -23z"/>
<path d="M1034 1859 c-10 -17 13 -36 27 -22 12 12 4 33 -11 33 -5 0 -12 -5
-16 -11z"/>
<path d="M2054 1859 c-10 -17 13 -36 27 -22 12 12 4 33 -11 33 -5 0 -12 -5
-16 -11z"/>
<path d="M200 1818 c20 -22 36 -28 85 -31 33 -3 49 -3 35 0 -14 2 -32 7 -40
10 -8 3 -23 5 -34 4 -10 -2 -30 8 -45 20 l-26 23 25 -26z"/>
<path d="M494 1799 c-10 -17 13 -36 27 -22 12 12 4 33 -11 33 -5 0 -12 -5 -16
-11z"/>
<path d="M1514 1799 c-10 -17 13 -36 27 -22 12 12 4 33 -11 33 -5 0 -12 -5
-16 -11z"/>
<path d="M774 1773 c4 -8 2 -13 -6 -13 -8 0 -5 -7 8 -18 25 -21 79 -104 76
-116 -5 -15 9 -46 19 -41 18 12 8 67 -20 108 -27 39 -93 107 -77 80z"/>
<path d="M1771 1745 c-18 -16 -36 -23 -43 -19 -7 4 -6 -1 3 -12 9 -10 22 -35
28 -55 6 -20 28 -55 47 -78 20 -22 32 -41 27 -41 -5 0 -18 -6 -29 -14 -15 -12
-10 -12 29 1 26 8 47 20 47 25 0 5 -16 24 -36 41 -41 36 -64 82 -64 127 0 25
3 29 15 23 18 -10 80 -104 77 -117 -5 -16 9 -46 19 -41 29 19 -10 116 -69 168
-19 17 -21 17 -51 -8z"/>
<path d="M2791 1744 c-18 -15 -36 -22 -43 -18 -7 4 -6 -1 3 -12 9 -10 20 -30
24 -44 9 -29 40 -76 67 -103 19 -18 19 -19 1 -33 -16 -12 -14 -12 17 -4 19 6
36 10 37 10 13 0 -3 27 -32 53 -37 34 -65 91 -65 131 0 32 25 25 45 -13 7 -14
22 -36 33 -47 11 -12 20 -28 20 -35 -2 -33 3 -50 12 -44 30 18 -17 135 -69
171 -17 12 -23 11 -50 -12z"/>
<path d="M38 1747 c-30 -10 -36 -15 -28 -27 9 -13 12 -13 21 3 7 12 15 15 22
9 8 -6 18 -2 30 10 20 21 10 22 -45 5z"/>
<path d="M1130 1729 c0 -55 -31 -93 -102 -127 -35 -17 -71 -33 -82 -36 -17 -6
-18 -8 -2 -24 26 -29 20 -40 -39 -67 -52 -25 -57 -26 -87 -11 -39 20 -44 20
-28 1 36 -44 169 -9 180 47 4 21 18 34 67 58 72 36 104 79 105 140 0 23 -2 44
-6 47 -3 4 -6 -9 -6 -28z"/>
<path d="M2150 1730 c0 -56 -31 -94 -102 -128 -35 -17 -71 -33 -82 -36 -17 -6
-18 -8 -2 -24 26 -29 19 -41 -39 -68 -52 -25 -56 -25 -86 -10 -40 20 -45 20
-29 1 37 -45 170 -9 180 49 4 21 13 32 35 40 46 17 101 53 118 80 18 27 28 99
16 118 -6 8 -9 0 -9 -22z"/>
<path d="M112 1732 c-3 -43 -32 -88 -72 -113 -44 -27 -55 -55 -17 -43 63 20
99 70 94 132 -2 26 -4 36 -5 24z"/>
<path d="M736 1734 c-4 -10 -12 -14 -23 -10 -15 6 -16 5 -1 -11 8 -10 21 -34
27 -53 6 -19 25 -50 41 -69 36 -40 36 -44 8 -64 -21 -14 -18 -14 24 0 53 17
54 31 5 72 -33 28 -57 77 -57 115 0 30 -15 42 -24 20z"/>
<path d="M454 1725 c-71 -31 -122 -107 -94 -140 26 -31 86 -10 139 50 35 41
39 65 13 88 -21 19 -18 19 -58 2z m56 -20 c0 -17 -39 -60 -76 -86 -67 -46 -85
-36 -38 21 32 37 114 84 114 65z"/>
<path d="M1455 1711 c-98 -56 -113 -160 -20 -137 31 8 102 70 111 98 7 23 -13
68 -30 68 -6 0 -34 -13 -61 -29z m75 -9 c0 -17 -33 -53 -75 -82 -68 -47 -87
-37 -39 20 34 40 114 84 114 62z"/>
<path d="M2487 1720 c-71 -35 -108 -91 -87 -130 14 -26 46 -25 90 1 73 44 102
105 63 135 -22 17 -21 17 -66 -6z m63 -18 c0 -17 -33 -53 -75 -82 -49 -34 -55
-36 -55 -16 0 22 39 65 78 86 41 21 52 24 52 12z"/>
<path d="M40 1666 c-14 -8 -28 -12 -32 -10 -5 3 -8 -2 -8 -10 0 -23 21 -20 55
9 33 27 25 32 -15 11z"/>
<path d="M1037 1660 c-57 -22 -77 -37 -77 -57 0 -12 2 -12 15 0 8 9 27 18 43
21 27 7 96 55 77 55 -5 0 -32 -8 -58 -19z"/>
<path d="M2057 1660 c-57 -22 -77 -37 -77 -58 0 -13 2 -13 18 1 9 8 29 18 43
22 26 6 92 54 74 54 -5 0 -32 -8 -58 -19z"/>
<path d="M1184 1549 c-10 -17 13 -36 27 -22 12 12 4 33 -11 33 -5 0 -12 -5
-16 -11z"/>
<path d="M2202 1543 c4 -21 33 -25 33 -3 0 8 -8 16 -18 18 -14 3 -18 -1 -15
-15z"/>
<path d="M2944 1473 c-49 -25 -52 -25 -84 -9 -41 20 -46 20 -30 1 20 -24 75
-29 111 -11 18 9 38 16 46 16 7 0 13 7 13 15 0 8 -1 15 -2 14 -2 0 -26 -12
-54 -26z"/>
<path d="M420 1474 c-38 -10 -61 -12 -77 -5 -33 15 -35 1 -4 -25 27 -23 30
-23 65 -9 46 19 206 31 231 18 16 -9 14 -12 -16 -17 -19 -4 -43 -11 -54 -16
-59 -24 -116 -41 -124 -36 -5 3 -8 0 -7 -8 2 -12 57 -66 68 -66 2 0 4 12 3 27
0 25 6 30 64 51 72 25 91 38 91 58 0 41 -133 57 -240 28z"/>
<path d="M1437 1474 c-43 -10 -64 -11 -79 -3 -11 6 -22 8 -26 5 -3 -3 -3 -7
-1 -8 2 -2 16 -13 30 -26 24 -21 27 -22 62 -7 47 19 207 31 232 18 16 -9 14
-12 -16 -17 -19 -4 -43 -11 -54 -16 -59 -24 -116 -41 -124 -36 -5 3 -8 0 -7
-8 2 -13 71 -76 83 -76 2 0 -1 9 -7 21 -17 32 -6 45 52 64 98 33 119 59 73 89
-30 20 -136 20 -218 0z"/>
<path d="M2456 1473 c-38 -11 -55 -12 -74 -3 -35 15 -36 8 -4 -23 28 -27 30
-27 64 -13 43 18 185 32 224 21 26 -6 18 -11 -71 -41 -55 -18 -105 -32 -112
-30 -24 9 -5 -25 31 -54 46 -36 50 -37 36 -9 -17 32 -6 45 52 64 97 32 119 59
76 89 -29 21 -155 20 -222 -1z"/>
<path d="M290 1433 c0 -50 -8 -51 -198 -9 -75 17 -92 15 -92 -10 0 -9 12 -14
38 -15 20 0 82 -11 137 -23 l100 -23 27 20 c33 24 34 34 8 67 l-20 25 0 -32z"/>
<path d="M1310 1433 c0 -42 -20 -48 -111 -27 -41 8 -94 20 -119 25 -47 10
-132 3 -162 -12 -10 -5 -23 -19 -29 -30 -16 -30 13 -57 70 -65 107 -15 132
-45 77 -89 -24 -19 -26 -25 -17 -44 7 -11 15 -21 20 -21 21 0 278 92 323 115
41 21 55 25 77 17 34 -14 87 -25 80 -18 -10 10 -119 66 -128 66 -5 0 -12 -8
-16 -19 -4 -13 -38 -31 -108 -57 -56 -20 -129 -50 -162 -65 -43 -21 -63 -25
-72 -17 -21 17 -16 24 27 37 28 8 42 19 46 35 13 54 -25 78 -148 92 -64 7 -71
15 -33 32 40 19 160 13 270 -12 l100 -23 27 20 c33 24 34 34 8 67 l-20 25 0
-32z"/>
<path d="M2330 1440 c-1 -55 -8 -56 -142 -27 -68 15 -136 27 -152 27 -49 0
-107 -23 -123 -47 -14 -21 -14 -25 1 -42 9 -10 34 -21 54 -25 115 -19 144 -44
95 -83 -31 -25 -23 -29 26 -12 35 12 49 46 32 78 -13 23 -59 38 -143 48 -32 3
-58 9 -58 13 0 36 167 37 316 2 l81 -18 27 21 c31 25 32 32 6 65 l-20 25 0
-25z"/>
<path d="M2946 1409 c-31 -24 -33 -40 -8 -62 23 -21 62 -22 62 -2 0 10 -10 15
-30 15 -16 0 -30 4 -30 9 0 5 14 14 30 21 30 13 42 40 16 40 -7 0 -25 -9 -40
-21z"/>
<path d="M0 1330 c0 -10 9 -21 19 -25 33 -10 35 -38 4 -62 -31 -25 -23 -29 25
-12 34 12 49 48 32 79 -6 11 -12 20 -13 20 -1 0 -17 4 -35 9 -28 8 -32 7 -32
-9z"/>
<path d="M355 1331 c-4 -13 -38 -31 -108 -57 -56 -20 -129 -50 -162 -65 -43
-21 -63 -25 -72 -17 -9 7 -13 7 -13 -1 0 -20 29 -24 63 -10 17 7 38 14 46 16
32 4 218 78 245 96 28 19 30 20 77 3 74 -27 79 -14 9 22 -73 37 -77 38 -85 13z"/>
<path d="M2395 1331 c-4 -13 -38 -31 -108 -57 -56 -20 -129 -50 -162 -65 -43
-20 -61 -25 -67 -16 -4 6 -10 8 -14 4 -4 -4 -3 -12 4 -19 8 -8 32 -4 94 16
119 39 237 85 265 103 19 13 29 14 49 4 14 -6 42 -14 62 -17 33 -4 30 -1 -31
30 -79 42 -84 42 -92 17z"/>
<path d="M180 1289 c-30 -16 -44 -27 -30 -23 30 8 100 42 100 49 0 10 -16 4
-70 -26z"/>
<path d="M761 1313 c-49 -19 -77 -97 -45 -124 21 -17 61 7 88 54 20 35 20 36
2 56 -20 22 -22 23 -45 14z m32 -30 c-9 -26 -54 -83 -64 -83 -18 0 -8 31 22
65 33 38 52 46 42 18z"/>
<path d="M1200 1289 c-30 -16 -44 -27 -30 -23 30 8 100 42 100 49 0 10 -16 4
-70 -26z"/>
<path d="M1773 1308 c-26 -13 -57 -67 -52 -92 2 -11 11 -24 20 -29 22 -14 63
12 84 54 15 28 15 33 0 55 -17 27 -20 27 -52 12z m47 -16 c0 -15 -59 -92 -70
-92 -19 0 -10 30 21 65 30 34 49 44 49 27z"/>
<path d="M2218 1289 c-32 -16 -58 -31 -58 -34 0 -7 113 44 125 56 17 17 -9 9
-67 -22z"/>
<path d="M2774 1286 c-37 -37 -44 -75 -18 -97 22 -18 61 4 87 49 18 30 18 34
3 57 -22 33 -31 32 -72 -9z m66 6 c0 -15 -59 -92 -70 -92 -19 0 -10 30 21 65
30 34 49 44 49 27z"/>
<path d="M341 1156 c-17 -21 -3 -62 31 -91 33 -28 48 -31 66 -13 21 21 13 58
-17 89 -32 31 -62 37 -80 15z m68 -45 c35 -49 23 -71 -16 -28 -20 22 -43 60
-43 72 0 13 40 -17 59 -44z"/>
<path d="M1362 1158 c-20 -20 -14 -45 19 -83 32 -36 56 -44 77 -23 19 19 14
54 -14 87 -27 32 -61 40 -82 19z m67 -47 c35 -49 23 -71 -16 -28 -20 22 -43
60 -43 72 0 13 40 -17 59 -44z"/>
<path d="M2381 1156 c-17 -21 -3 -62 31 -91 33 -28 48 -31 66 -13 21 21 13 58
-17 89 -32 31 -62 37 -80 15z m68 -45 c35 -49 23 -71 -16 -28 -20 22 -43 60
-43 72 0 13 40 -17 59 -44z"/>
<path d="M780 1139 c-24 -10 -56 -17 -90 -18 -12 -1 -12 -3 -2 -10 24 -15 -9
-28 -83 -34 -59 -4 -73 -9 -92 -32 -27 -30 -29 -53 -8 -81 13 -17 13 -16 2 14
-10 30 -9 34 16 59 24 24 35 28 87 28 53 0 63 -4 83 -27 21 -24 29 -26 128
-32 118 -6 118 -6 138 56 7 21 21 40 31 43 24 8 110 -4 110 -15 0 -28 -15 -40
-49 -40 -30 -1 -40 -7 -58 -36 -27 -41 -30 -66 -8 -57 9 3 14 8 11 11 -3 2 1
17 10 33 11 22 22 29 43 29 32 0 64 30 59 57 -2 11 -19 23 -47 32 -38 12 -47
12 -78 -3 -35 -17 -37 -16 -74 9 -41 26 -86 31 -129 14z m129 -56 c39 -36 38
-71 -1 -56 -13 4 -65 8 -115 7 -79 -1 -93 1 -93 15 1 21 104 70 144 68 19 -1
44 -14 65 -34z"/>
<path d="M1775 1131 c-22 -10 -47 -16 -55 -13 -8 3 -12 2 -8 -3 16 -17 -16
-35 -61 -36 -100 -1 -155 -44 -132 -103 7 -16 14 -26 17 -23 3 3 0 15 -6 27
-9 17 -8 26 4 45 34 51 139 56 183 9 17 -19 32 -24 71 -24 27 0 76 -3 108 -6
l59 -6 22 51 c12 28 29 54 39 58 9 3 39 2 65 -3 58 -12 55 1 -3 17 -35 9 -48
8 -77 -6 -33 -16 -35 -15 -64 6 -41 30 -110 34 -162 10z m154 -48 c39 -36 38
-71 -1 -56 -13 4 -65 8 -116 7 -89 -1 -93 0 -90 20 2 12 5 19 8 17 3 -1 26 8
53 22 62 34 103 31 146 -10z"/>
<path d="M2746 1136 c4 -11 0 -16 -12 -16 -14 0 -16 -3 -6 -9 24 -15 -9 -28
-83 -34 -59 -4 -73 -9 -92 -32 -28 -32 -29 -55 -3 -83 29 -31 34 -27 9 7 -18
24 -19 32 -9 51 27 50 156 65 180 20 14 -25 29 -29 147 -35 111 -5 118 -2 121
51 2 26 -5 37 -35 60 -31 23 -48 29 -88 28 -27 0 -67 -8 -87 -17 -30 -14 -36
-14 -32 -3 3 8 1 17 -5 21 -7 3 -8 0 -5 -9z m202 -50 c17 -16 32 -38 32 -49 0
-16 -4 -18 -27 -11 -16 5 -70 9 -121 8 -88 -1 -93 0 -90 19 2 13 12 22 28 24
13 2 27 8 30 13 9 14 52 28 85 26 18 0 44 -13 63 -30z"/>
<path d="M0 1119 c0 -5 18 -12 41 -15 29 -5 39 -11 35 -21 -4 -8 -6 -19 -6
-24 0 -5 -17 -9 -37 -10 -34 0 -36 -1 -16 -11 42 -20 100 44 62 68 -20 12 -79
22 -79 13z"/>
<path d="M2114 1065 c-4 -9 -20 -15 -43 -15 -30 -1 -40 -7 -58 -36 -25 -39
-30 -68 -10 -61 6 2 12 8 13 13 3 29 24 60 44 61 26 2 70 29 70 43 0 15 -10
12 -16 -5z"/>
<path d="M549 1012 c-16 -13 -20 -24 -15 -38 6 -17 8 -16 19 6 18 37 65 38
117 4 44 -29 60 -66 41 -97 -10 -15 -10 -18 0 -15 15 5 29 51 23 75 -5 16 -22
30 -89 70 -29 18 -69 16 -96 -5z"/>
<path d="M1571 1011 c-12 -12 -18 -27 -14 -36 4 -13 8 -12 17 7 18 37 71 36
124 -2 44 -33 56 -71 30 -99 -11 -11 -10 -13 1 -9 17 5 31 50 24 75 -7 27 -81
75 -124 80 -28 4 -41 1 -58 -16z"/>
<path d="M2591 1011 c-12 -12 -18 -27 -14 -36 4 -13 8 -12 17 7 18 37 71 36
124 -2 45 -34 57 -75 27 -100 -21 -17 -19 -34 8 -56 22 -19 22 -19 5 2 -22 25
-22 34 -2 48 14 11 25 80 13 89 -2 1 -21 15 -42 31 -52 38 -108 45 -136 17z"/>
<path d="M1260 992 c-51 -7 -100 -23 -115 -38 -36 -36 -1 -127 54 -139 26 -5
29 -10 21 -24 -8 -15 -6 -17 15 -13 20 3 25 10 25 34 0 28 -1 29 -35 22 -29
-5 -38 -2 -55 17 -11 14 -19 39 -20 61 0 33 3 38 33 47 69 21 117 23 142 7 13
-9 33 -16 45 -16 24 0 25 -8 3 -32 -15 -17 -15 -18 10 -18 27 0 38 -22 17 -35
-18 -11 -10 -27 11 -22 26 7 35 -14 19 -44 -11 -20 -10 -21 6 -15 34 13 39 11
39 -16 -1 -32 2 -34 26 -12 17 15 19 15 30 -10 14 -30 24 -33 33 -11 5 13 10
14 27 4 15 -8 19 -8 15 0 -4 6 0 14 8 17 31 12 16 22 -24 17 -76 -10 -117 23
-170 136 -24 50 -29 54 -80 70 -30 9 -66 15 -80 13z"/>
<path d="M195 984 c-75 -19 -92 -39 -81 -98 7 -39 30 -62 69 -71 27 -7 27 -8
11 -32 -15 -24 -15 -27 5 -54 12 -15 21 -34 21 -41 0 -20 39 -80 67 -101 l25
-20 -29 -23 -28 -23 48 17 c27 10 45 22 43 29 -3 6 2 17 10 23 23 20 16 62
-17 115 -36 57 -57 75 -77 67 -12 -4 -11 -8 5 -21 46 -38 101 -161 72 -161
-24 0 -78 67 -84 106 -11 65 -14 70 -30 48 -13 -16 -16 -17 -25 -4 -14 21 -7
34 18 38 17 3 22 10 22 33 0 28 -1 29 -38 23 -34 -5 -40 -3 -56 21 -18 27 -24
74 -12 93 3 5 37 16 75 23 62 11 73 10 95 -4 14 -10 34 -17 46 -17 24 0 25 -8
3 -32 -15 -17 -15 -18 10 -18 27 0 38 -22 17 -35 -18 -11 -11 -27 10 -22 26 7
33 -5 20 -37 -9 -24 -8 -25 15 -16 26 10 28 8 25 -27 -2 -27 7 -29 31 -7 17
15 19 15 30 -10 14 -29 29 -35 29 -10 0 10 6 14 18 10 16 -5 60 19 51 28 -2 3
-20 1 -39 -3 -43 -9 -106 20 -122 55 -6 13 -15 24 -19 24 -4 0 -15 22 -25 50
-14 39 -25 53 -53 67 -36 17 -119 26 -156 17z"/>
<path d="M2211 978 c-19 -5 -41 -17 -48 -26 -32 -43 2 -125 57 -136 32 -6 32
-6 15 -32 -13 -20 -14 -29 -5 -38 8 -8 10 -7 5 6 -5 13 0 19 19 24 21 5 26 12
26 36 0 28 -1 29 -35 22 -29 -5 -38 -2 -55 17 -11 14 -19 39 -20 61 0 33 3 38
33 47 69 21 117 23 142 7 13 -9 33 -16 45 -16 21 0 27 -14 10 -25 -17 -10 -11
-25 10 -25 21 0 28 -24 10 -35 -18 -11 -10 -25 15 -25 27 0 31 -10 14 -42 -10
-18 -9 -20 7 -14 34 13 39 11 39 -16 -1 -31 7 -35 25 -13 18 21 27 19 34 -10
7 -28 21 -33 30 -10 4 13 10 14 26 5 16 -8 20 -8 20 4 0 8 6 16 13 19 26 9 -1
15 -35 8 -26 -6 -42 -5 -56 5 -11 7 -22 11 -25 8 -7 -7 -76 86 -77 102 0 6 -7
25 -15 42 -26 52 -135 76 -224 50z"/>
<path d="M2104 969 c-10 -17 13 -36 27 -22 12 12 4 33 -11 33 -5 0 -12 -5 -16
-11z"/>
<path d="M930 939 c0 -5 8 -9 19 -9 10 0 26 -10 35 -22 l16 -23 -9 25 c-8 23
-61 49 -61 29z"/>
<path d="M1950 939 c0 -5 9 -9 20 -9 11 0 23 -7 26 -15 4 -8 10 -15 15 -15 6
0 6 8 0 19 -11 19 -61 35 -61 20z"/>
<path d="M824 908 c-8 -15 -14 -38 -14 -51 0 -20 6 -26 29 -29 17 -2 28 -1 25
4 -3 4 -12 8 -20 8 -20 0 -18 57 3 68 18 10 66 0 89 -19 11 -9 14 -8 14 5 0 9
-6 16 -14 16 -8 0 -21 7 -30 15 -23 23 -66 15 -82 -17z"/>
<path d="M1844 908 c-8 -15 -14 -38 -14 -51 0 -20 6 -26 29 -29 17 -2 28 -1
25 4 -3 4 -12 8 -20 8 -9 0 -14 11 -14 30 0 44 40 58 86 31 28 -17 34 -18 34
-6 0 8 -6 15 -14 15 -8 0 -21 7 -30 15 -23 23 -66 15 -82 -17z"/>
<path d="M2888 933 c-19 -5 -41 -53 -36 -79 1 -10 15 -21 31 -25 16 -4 25 -3
21 2 -3 5 -12 9 -20 9 -21 0 -14 51 9 68 15 12 24 11 57 -6 29 -14 40 -16 40
-7 0 7 -11 16 -25 19 -14 4 -25 11 -25 16 0 10 -21 11 -52 3z"/>
<path d="M757 884 c-20 -27 -16 -54 8 -54 11 0 15 11 15 40 0 22 -1 40 -2 40
-2 0 -11 -12 -21 -26z"/>
<path d="M1777 883 c-19 -24 -17 -53 3 -53 18 0 11 -20 -7 -21 -21 -2 32 -16
65 -18 12 0 22 4 22 9 0 6 -6 10 -12 9 -37 -4 -50 2 -45 20 2 11 2 33 -2 49
l-6 30 -18 -25z"/>
<path d="M2797 883 c-19 -24 -17 -53 3 -53 18 0 11 -20 -7 -21 -24 -2 34 -16
70 -18 17 -1 26 3 22 9 -3 6 -20 10 -37 10 -26 0 -29 3 -24 23 3 13 2 35 -2
49 l-7 26 -18 -25z"/>
<path d="M755 810 c-15 -5 -10 -8 20 -13 57 -10 77 -9 70 3 -4 6 -10 8 -15 5
-5 -3 -19 -1 -32 4 -12 4 -32 5 -43 1z"/>
<path d="M1004 809 c-10 -17 13 -36 27 -22 12 12 4 33 -11 33 -5 0 -12 -5 -16
-11z"/>
<path d="M2024 809 c-10 -17 13 -36 27 -22 12 12 4 33 -11 33 -5 0 -12 -5 -16
-11z"/>
<path d="M1274 767 c-10 -6 -24 -18 -31 -26 -11 -14 -13 -14 -27 4 -9 11 0
-11 20 -50 19 -38 43 -79 53 -90 34 -40 35 -47 10 -66 -23 -18 -23 -18 24 -1
27 10 45 22 43 29 -3 6 2 17 10 23 23 20 16 67 -18 119 -40 60 -58 73 -84 58z
m41 -46 c7 -14 22 -35 32 -46 17 -19 28 -85 13 -85 -17 0 -59 42 -74 74 -21
45 -22 98 -1 89 9 -3 22 -17 30 -32z"/>
<path d="M2279 752 l-32 -28 22 -50 c12 -27 36 -63 52 -80 l30 -31 -28 -21
-28 -21 48 17 c27 10 45 22 43 29 -3 6 2 17 10 23 8 7 14 25 14 41 0 32 -60
133 -85 142 -9 4 -28 -5 -46 -21z m51 -22 c0 -4 12 -23 27 -41 25 -30 42 -99
25 -99 -35 0 -91 88 -92 143 0 25 2 27 20 17 11 -6 20 -15 20 -20z"/>
<path d="M617 730 c-8 -59 -62 -111 -141 -136 -60 -19 -65 -24 -41 -44 27 -22
16 -40 -41 -65 -51 -23 -58 -24 -84 -10 -36 19 -46 19 -31 1 21 -26 70 -30
115 -10 45 21 65 40 66 66 0 11 18 25 49 38 87 38 143 123 121 185 -5 14 -8 7
-13 -25z"/>
<path d="M1642 740 c-3 -63 -47 -108 -134 -141 -54 -20 -71 -40 -48 -54 23
-14 7 -36 -45 -60 -51 -25 -56 -25 -84 -11 -37 20 -47 20 -32 2 38 -45 166
-11 178 46 4 23 18 34 67 58 80 38 109 79 103 146 -3 38 -4 41 -5 14z"/>
<path d="M2660 741 c0 -18 -7 -45 -16 -61 -20 -34 -86 -77 -137 -91 -31 -8
-37 -14 -32 -27 19 -46 18 -50 -36 -76 -49 -23 -55 -24 -87 -10 -43 18 -47 18
-33 0 24 -28 68 -29 126 -2 44 20 55 30 55 49 0 19 12 30 65 56 77 39 109 82
107 144 -2 49 -12 64 -12 18z"/>
<path d="M950 726 c-75 -39 -111 -113 -69 -139 26 -16 70 2 116 47 45 46 53
74 27 100 -20 20 -21 20 -74 -8z m70 -16 c0 -14 -66 -78 -100 -95 -62 -32 -38
25 33 76 40 29 67 37 67 19z"/>
<path d="M1991 739 c-72 -29 -121 -93 -102 -135 15 -33 49 -31 98 5 71 52 95
109 54 131 -23 12 -19 12 -50 -1z m49 -24 c0 -17 -39 -60 -77 -87 -49 -33 -74
-28 -47 11 30 42 124 100 124 76z"/>
<path d="M2943 690 c-41 -39 -50 -66 -27 -91 30 -33 84 -22 84 18 l0 24 -29
-20 c-36 -26 -41 -26 -41 -3 0 10 16 33 35 52 19 19 35 38 35 42 0 17 -26 7
-57 -22z"/>
<path d="M515 668 c-51 -25 -76 -48 -68 -61 3 -5 10 -3 15 7 5 9 16 16 24 16
19 0 90 36 99 50 10 16 -26 10 -70 -12z"/>
<path d="M1565 682 c-6 -5 -26 -15 -45 -22 -38 -15 -50 -27 -50 -50 1 -12 3
-11 11 3 5 9 17 17 25 17 19 0 90 36 99 50 7 12 -27 14 -40 2z"/>
<path d="M2552 666 c-53 -27 -78 -51 -63 -60 6 -4 14 0 17 8 3 9 13 16 20 16
19 0 91 36 99 50 10 16 -27 9 -73 -14z"/>
<path d="M0 485 c0 -12 14 -15 64 -15 72 0 95 -14 40 -25 -20 -3 -44 -10 -53
-15 -9 -5 -24 -11 -33 -14 -26 -8 -22 -26 5 -26 34 0 127 47 127 64 0 26 -42
46 -97 46 -40 0 -53 -4 -53 -15z"/>
<path d="M916 484 c-34 -11 -52 -12 -59 -5 -6 6 -18 11 -26 11 -10 0 -6 -9 13
-29 28 -29 28 -29 70 -14 50 18 230 30 240 15 3 -5 -10 -13 -30 -17 -20 -3
-44 -10 -53 -15 -34 -19 -121 -41 -132 -34 -8 5 -9 3 -3 -7 9 -16 59 -59 83
-73 13 -8 13 -6 -2 17 -22 33 -13 41 72 70 75 26 95 48 68 74 -24 25 -172 29
-241 7z"/>
<path d="M1937 484 c-36 -11 -52 -12 -68 -4 -32 17 -32 7 -1 -23 28 -27 29
-27 68 -11 46 20 228 32 238 16 3 -5 -10 -13 -32 -17 -20 -4 -41 -10 -47 -15
-5 -4 -23 -10 -39 -14 -17 -4 -45 -14 -64 -22 l-34 -14 29 -23 c68 -55 68 -54
54 -29 -19 35 -8 49 52 68 98 30 124 71 62 94 -38 14 -162 11 -218 -6z"/>
<path d="M2885 461 l31 -31 42 16 c52 21 59 50 10 39 -40 -9 -56 -9 -88 0 -25
7 -25 7 5 -24z"/>
<path d="M1820 454 c0 -58 -37 -65 -155 -26 -30 10 -84 16 -135 17 -76 0 -88
-3 -112 -24 -16 -14 -28 -30 -28 -38 0 -19 40 -41 90 -49 54 -8 100 -30 100
-47 0 -7 -13 -23 -30 -35 -16 -13 -30 -29 -30 -36 0 -11 -24 -14 -107 -14 -60
1 -111 2 -115 5 -5 2 2 22 15 43 l22 39 -22 22 -21 22 -36 -22 c-34 -21 -48
-45 -50 -86 -1 -18 -8 -20 -65 -21 -40 0 -66 -5 -69 -12 -2 -7 -10 -12 -17
-12 -7 0 -15 -7 -19 -15 -3 -8 -2 -15 2 -15 4 0 16 -14 25 -30 18 -30 18 -30
-7 -40 -29 -11 -60 -54 -53 -72 4 -9 6 -8 6 3 1 8 13 26 27 40 21 20 36 24 85
24 52 0 62 -3 82 -27 21 -25 27 -27 131 -30 89 -2 110 0 117 12 17 29 32 75
35 105 1 17 0 22 -2 13 -6 -21 -44 -24 -44 -4 0 8 -3 22 -7 32 -5 14 -3 16 13
10 10 -4 23 -8 29 -9 5 -1 15 -9 22 -17 11 -13 12 -13 13 3 0 9 4 17 9 17 6 0
4 -15 -4 -32 l-13 -33 50 -2 c28 -1 52 -3 54 -5 2 -2 1 -14 -3 -26 -4 -18 -13
-22 -43 -22 -33 0 -41 -5 -54 -30 -16 -33 -5 -41 16 -12 7 11 29 22 49 26 28
5 39 14 52 42 10 19 22 32 27 29 18 -11 54 -16 142 -19 69 -3 92 -8 113 -24
31 -25 68 -17 73 16 6 42 -92 180 -120 169 -8 -4 -7 -6 5 -6 20 -1 23 -21 3
-21 -8 0 -16 -4 -18 -9 -4 -11 -97 -20 -121 -12 -18 7 -18 7 0 22 10 8 43 23
73 34 30 10 67 26 82 37 28 19 58 23 74 9 10 -10 74 -25 74 -18 0 8 -112 67
-126 67 -7 0 -15 -8 -18 -18 -4 -13 -50 -35 -146 -71 -92 -35 -140 -58 -140
-68 0 -10 6 -12 20 -8 19 6 20 3 14 -22 -13 -57 -53 -63 -80 -12 -14 28 -13
29 7 29 14 0 19 5 16 14 -4 10 5 18 29 26 20 7 33 14 30 18 -3 3 -24 -3 -46
-13 -28 -13 -37 -21 -28 -27 8 -5 9 -8 2 -8 -6 0 -17 6 -23 13 -9 11 -3 17 29
27 42 14 56 36 45 71 -9 28 -57 47 -139 55 -78 8 -82 23 -10 41 53 14 106 9
255 -22 84 -18 86 -18 112 1 32 23 32 25 7 66 l-20 33 0 -31z m-524 -171 c-8
-16 -26 -39 -40 -52 -39 -36 -35 -1 5 44 37 42 55 46 35 8z m394 -98 c0 -11 7
-14 27 -11 15 3 32 1 39 -5 8 -6 14 -7 18 0 4 5 30 8 59 6 28 -2 46 -1 40 2
-20 7 -15 23 7 23 11 0 20 -7 20 -15 0 -9 6 -12 18 -8 13 5 15 3 5 -7 -9 -10
-6 -20 14 -46 35 -47 24 -68 -14 -26 -32 34 -86 44 -97 20 -5 -10 -7 -10 -12
0 -3 6 -14 12 -25 12 -10 0 -19 5 -19 10 0 6 -8 10 -17 10 -15 0 -16 -2 -3
-10 13 -8 13 -10 -2 -10 -9 0 -22 8 -27 18 -10 16 -10 16 -11 0 0 -10 -4 -18
-10 -18 -5 0 -11 8 -11 18 -1 16 -2 16 -6 0 -2 -10 -9 -18 -14 -18 -10 0 -12
53 -2 63 11 12 23 8 23 -8z m-570 -6 c0 -5 5 -7 10 -4 6 4 17 1 25 -5 11 -9
15 -9 15 -1 0 18 30 12 31 -6 1 -12 4 -10 9 7 7 21 8 22 9 5 1 -13 4 -16 9 -8
4 6 24 11 45 11 34 0 37 -2 36 -26 l-1 -27 -8 25 c-6 19 -8 20 -9 6 -1 -21
-28 -45 -51 -46 -13 0 -13 1 0 10 17 11 8 13 -45 11 -23 -2 -27 0 -15 8 12 8
8 11 -17 11 -17 0 -35 -4 -38 -10 -3 -5 -17 -10 -31 -10 -29 0 -34 33 -6 49
22 13 32 14 32 0z m279 -49 c-8 -6 -2 -17 21 -37 44 -39 37 -67 -12 -52 -18 5
-69 9 -113 7 -71 -3 -80 -1 -80 15 0 9 2 16 5 16 3 -1 32 13 65 31 47 25 63
30 77 21 14 -9 16 -8 11 5 -4 10 -14 14 -29 11 -15 -3 -24 1 -24 9 0 18 19 27
33 16 8 -7 18 -6 32 4 19 14 20 13 23 -12 2 -15 -2 -30 -9 -34z"/>
<path d="M2842 450 c1 -17 -5 -36 -13 -41 -17 -10 -77 -2 -139 19 -27 9 -82
16 -137 16 -84 1 -94 -1 -117 -23 -14 -14 -26 -30 -26 -38 0 -18 38 -40 85
-47 101 -17 125 -45 73 -88 l-33 -27 20 -20 20 -20 75 24 c132 42 244 85 262
102 12 11 27 14 53 9 43 -8 45 3 4 27 -39 22 -56 22 -63 -1 -4 -13 -46 -34
-134 -66 -70 -26 -142 -57 -160 -67 -29 -17 -35 -17 -48 -5 -20 20 -19 21 26
36 41 14 59 42 46 75 -8 23 -64 43 -140 51 -36 4 -66 10 -66 14 0 17 68 34
129 33 36 -1 104 -11 151 -22 106 -26 119 -26 152 2 l26 22 -23 34 -24 34 1
-33z"/>
<path d="M800 444 c0 -50 -15 -51 -180 -12 -104 25 -191 20 -227 -14 -13 -12
-23 -27 -23 -33 0 -19 35 -45 61 -46 37 -1 122 -32 127 -46 2 -7 -11 -26 -28
-42 -28 -25 -30 -32 -21 -50 13 -24 19 -25 58 -10 15 6 48 17 73 24 83 24 195
68 223 88 25 17 34 18 65 9 71 -22 84 -24 79 -15 -3 5 -32 21 -65 37 l-60 29
-24 -25 c-14 -15 -65 -40 -128 -63 -58 -21 -127 -49 -154 -62 -37 -19 -47 -21
-43 -9 4 10 1 13 -9 9 -7 -3 -14 -1 -14 4 0 5 15 14 33 21 45 16 58 15 27 -3
-14 -8 -20 -14 -15 -14 16 0 62 28 46 29 -9 0 -11 8 -7 25 14 55 -25 79 -140
91 -77 8 -79 23 -8 41 53 14 97 10 255 -23 84 -17 87 -17 112 2 32 23 33 31 7
64 l-20 25 0 -31z"/>
<path d="M245 318 c-50 -29 -72 -92 -41 -117 38 -31 120 62 92 103 -16 25 -26
28 -51 14z m31 -35 c-8 -16 -26 -39 -40 -52 -39 -36 -35 -1 5 44 37 42 55 46
35 8z"/>
<path d="M691 305 c-30 -14 -52 -28 -49 -31 5 -5 118 45 118 52 0 8 -17 3 -69
-21z"/>
<path d="M1712 303 c-29 -14 -51 -27 -49 -29 5 -5 117 45 117 52 0 8 -15 3
-68 -23z"/>
<path d="M2261 298 c-34 -34 -39 -63 -17 -93 12 -17 17 -18 40 -7 26 11 66 66
66 89 0 16 -28 43 -45 43 -7 0 -27 -14 -44 -32z m69 4 c0 -12 -48 -75 -65 -85
-27 -15 -17 20 16 58 30 33 49 44 49 27z"/>
<path d="M2730 300 c-30 -16 -52 -29 -49 -30 10 0 119 51 119 56 0 8 -16 2
-70 -26z"/>
<path d="M856 171 c-9 -10 -16 -24 -16 -33 0 -23 39 -68 69 -79 21 -9 29 -7
43 11 16 19 16 25 4 48 -28 55 -76 80 -100 53z m63 -50 c28 -39 28 -55 0 -41
-19 11 -59 66 -59 83 0 14 38 -13 59 -42z"/>
<path d="M2895 167 c-15 -23 -15 -28 0 -56 20 -40 58 -65 85 -56 32 10 27 74
-10 102 -44 36 -57 37 -75 10z m54 -32 c36 -41 42 -72 12 -55 -18 9 -61 69
-61 84 0 15 20 3 49 -29z"/>
<path d="M263 149 c-6 -6 -26 -12 -45 -14 -18 -1 -33 -8 -33 -14 0 -20 -28
-31 -76 -31 -59 0 -109 -17 -109 -38 0 -13 3 -12 21 4 16 14 36 19 80 19 52 0
62 -3 82 -27 21 -25 27 -27 131 -30 119 -3 112 -7 141 66 l15 39 56 -6 c31 -3
58 -7 60 -9 2 -2 1 -14 -3 -26 -4 -18 -13 -22 -44 -22 -33 0 -41 -5 -54 -30
-13 -25 -13 -30 -1 -30 7 0 16 9 19 20 3 14 14 20 31 20 28 0 66 31 66 55 0
19 -51 45 -87 45 -16 0 -39 -7 -51 -16 -22 -15 -25 -14 -61 10 -40 28 -117 36
-138 15z m136 -55 c46 -43 38 -67 -16 -52 -21 6 -73 8 -116 5 -76 -5 -78 -5
-75 16 2 12 7 20 12 19 5 -2 12 0 15 5 11 17 85 43 116 40 18 -1 44 -15 64
-33z"/>
<path d="M2285 141 c-22 -10 -47 -16 -55 -13 -8 3 -12 1 -8 -3 16 -17 -22 -33
-86 -37 -60 -4 -72 -8 -92 -32 -13 -15 -24 -35 -23 -44 0 -14 2 -14 6 -2 10
28 46 59 75 65 42 10 118 -3 118 -19 0 -26 26 -34 132 -39 118 -5 118 -5 137
56 15 45 42 55 110 39 l46 -10 -24 19 c-28 23 -75 24 -114 4 -25 -13 -30 -12
-64 10 -43 30 -101 32 -158 6z m156 -47 c39 -41 35 -70 -8 -53 -15 6 -66 9
-113 7 -79 -3 -85 -2 -85 17 0 11 5 20 10 21 6 0 30 10 55 22 62 30 103 26
141 -14z"/>
<path d="M2620 75 c0 -11 -11 -15 -37 -15 -32 0 -41 -5 -55 -30 -14 -24 -14
-30 -3 -30 7 0 17 9 20 20 4 12 15 20 28 20 13 0 33 7 45 16 23 16 29 34 12
34 -5 0 -10 -7 -10 -15z"/>
<path d="M39 20 c-20 -16 -21 -19 -6 -20 9 0 17 4 17 9 0 17 45 20 74 6 44
-22 67 -19 31 5 -38 25 -86 25 -116 0z"/>
<path d="M1059 20 c-29 -24 -19 -26 23 -4 30 15 34 15 64 -1 18 -9 38 -15 46
-13 20 7 -46 38 -80 38 -17 0 -40 -9 -53 -20z"/>
<path d="M2079 20 c-20 -16 -21 -19 -7 -20 9 0 20 5 23 10 8 13 51 13 76 -1
11 -5 28 -9 37 -7 13 3 9 8 -15 21 -42 23 -85 22 -114 -3z"/>
</g>
</svg>
